HIERARCHY
ROOT Hips
{
	OFFSET 0.00000 0.00000 0.00000
	CHANNELS 6 Xposition Yposition Zposition Zrotation Yrotation Xrotation 
	JOINT LHipJoint
	{
		OFFSET 0 0 0
		CHANNELS 3 Zrotation Yrotation Xrotation
		JOINT LeftHip
		{
			OFFSET 1.48831 -1.59570 0.95625
			CHANNELS 3 Zrotation Yrotation Xrotation
			JOINT LeftKnee
			{
				OFFSET 2.20856 -6.06797 0.00000
				CHANNELS 3 Zrotation Yrotation Xrotation
				JOINT LeftAnkle
				{
					OFFSET 2.62924 -7.22379 0.00000
					CHANNELS 3 Zrotation Yrotation Xrotation
					JOINT LeftToe
					{
						OFFSET 0.16802 -0.46163 2.41673
						CHANNELS 3 Zrotation Yrotation Xrotation
						End Site
						{
							OFFSET 0.00000 -0.00000 1.23760
						}
					}
				}
			}
		}
	}
	JOINT RHipJoint
	{
		OFFSET 0 0 0
		CHANNELS 3 Zrotation Yrotation Xrotation
		JOINT RightHip
		{
			OFFSET -1.56796 -1.59570 0.95625
			CHANNELS 3 Zrotation Yrotation Xrotation
			JOINT RightKnee
			{
				OFFSET -2.29239 -6.29829 0.00000
				CHANNELS 3 Zrotation Yrotation Xrotation
				JOINT RightAnkle
				{
					OFFSET -2.66963 -7.33475 0.00000
					CHANNELS 3 Zrotation Yrotation Xrotation
					JOINT RightToe
					{
						OFFSET -0.18185 -0.49964 2.34359
						CHANNELS 3 Zrotation Yrotation Xrotation
						End Site
						{
							OFFSET -0.00000 -0.00000 1.20477
						}
					}
				}
			}
		}
	}
	JOINT lowerback
	{
		OFFSET 0 0 0
		CHANNELS 3 Zrotation Yrotation Xrotation
		JOINT Chest
		{
			OFFSET 0.03505 2.15832 -0.34324
			CHANNELS 3 Zrotation Yrotation Xrotation
			JOINT Chest2
			{
				OFFSET -0.01089 2.17963 0.04689
				CHANNELS 3 Zrotation Yrotation Xrotation
				JOINT lowerneck
				{
					OFFSET 0 0 0
					CHANNELS 3 Zrotation Yrotation Xrotation
					JOINT Neck
					{
						OFFSET 0.04686 1.69404 0.22159
						CHANNELS 3 Zrotation Yrotation Xrotation
						JOINT Head
						{
							OFFSET 0.00265 1.69305 -0.01513
							CHANNELS 3 Zrotation Yrotation Xrotation
							End Site
							{
								OFFSET -0.00415 1.80215 -0.03034
							}
						}
					}
				}
				JOINT LeftCollar
				{
					OFFSET 0 0 0
					CHANNELS 3 Zrotation Yrotation Xrotation
					JOINT LeftShoulder
					{
						OFFSET 3.67184 1.11724 -0.19002
CHANNELS 3 Zrotation Xrotation Yrotation
						JOINT LeftElbow
						{
OFFSET 0 -5.177140 -0.000000
CHANNELS 3 Zrotation Xrotation Yrotation
							JOINT LeftWrist
							{
OFFSET 0 -3.436790 -0.000000
CHANNELS 3 Zrotation Xrotation Yrotation
								JOINT lhand
								{
									OFFSET 0 0 0
CHANNELS 3 Zrotation Xrotation Yrotation
									JOINT LFingers
									{
OFFSET 0 -0.573120 -0.000000
CHANNELS 3 Zrotation Xrotation Yrotation
										End Site
										{
OFFSET 0 -0.462060 -0.000000
										}
									}
								}
								JOINT LThumb
								{
OFFSET 0 0.000000 0.000000
CHANNELS 3 Zrotation Xrotation Yrotation
									End Site
									{
OFFSET 0 -0.469120 0.469120
									}
								}
							}
						}
					}
				}
				JOINT RightCollar
				{
					OFFSET 0 0 0
					CHANNELS 3 Zrotation Yrotation Xrotation
					JOINT RightShoulder
					{
						OFFSET -3.59596 0.95831 -0.26050
CHANNELS 3 Zrotation Xrotation Yrotation
						JOINT RightElbow
						{
OFFSET 0 -5.239080 -0.000000
CHANNELS 3 Zrotation Xrotation Yrotation
							JOINT RightWrist
							{
OFFSET 0 -3.464850 -0.000000
CHANNELS 3 Zrotation Xrotation Yrotation
								JOINT rhand
								{
									OFFSET 0 0 0
CHANNELS 3 Zrotation Xrotation Yrotation
									JOINT RFingers
									{
OFFSET 0 -0.608750 -0.000000
CHANNELS 3 Zrotation Xrotation Yrotation
										End Site
										{
OFFSET 0 -0.490790 -0.000000
										}
									}
								}
								JOINT RThumb
								{
OFFSET 0 0.000000 0.000000
CHANNELS 3 Zrotation Xrotation Yrotation
									End Site
									{
OFFSET 0 -0.498290 0.498290
									}
								}
							}
						}
					}
				}
			}
		}
	}
}
MOTION
Frames: 4
Frame Time: 0.008333333333333333
49.569300 15.979500 16.932600 -172.895000 -49.745500 175.614000 0.000000 0.000000 0.000000 -15.777900 8.270500 -8.861500 2.072200 9.015000 25.842100 1.433300 -1.475700 -22.208400 0.015800 -0.811300 -2.229700 0.000000 0.000000 0.000000 27.569500 5.971400 -9.358100 -3.332700 -11.215100 33.008700 -1.990200 -3.212600 -27.959100 -0.025200 -1.023800 2.814400 4.187300 -0.969500 -2.139200 1.918200 -1.670300 3.535700 -0.466800 -0.758000 4.802300 1.703500 -0.673200 -3.159200 0.238200 -0.980800 1.925000 -0.228100 -0.474900 1.108100 -0.000000 -0.000000 0.000000 0.699200 -1.246600 -23.312300 14.234600 -23.069000 2.919400 17.357300 -17.482400 -8.489300 0.000000 0.000000 0.000000 -7.125000 0.000000 0.000000 -8.225700 38.744300 -1.277800 -0.000000 -0.000000 0.000000 -3.481300 0.422100 23.673900 -16.184000 -25.769500 -3.725600 -20.496300 2.327200 2.066300 0.000000 0.000000 0.000000 7.125000 0.000000 -0.000000 4.903900 32.160500 1.546100
49.567791 15.979033 16.932307 -172.954307 -49.731590 175.613391 0.000000 0.000000 0.000000 -15.821728 8.261909 -8.769523 2.064682 8.999571 25.793865 1.431874 -1.421349 -22.211716 0.016365 -0.824851 -2.266918 0.000000 0.000000 0.000000 27.534831 5.969947 -9.320248 -3.336389 -11.220631 33.027721 -1.986031 -3.274173 -27.959072 -0.022248 -0.963276 2.647727 4.252424 -0.852910 -2.160934 1.912287 -1.517359 3.522012 -0.500363 -0.679425 4.804784 1.467712 -0.800544 -2.952468 0.405202 -1.140232 1.812608 -0.138874 -0.554953 1.038010 0.000000 0.000000 0.000000 0.680628 -1.228043 -23.611571 14.222173 -23.051359 2.914545 17.343764 -17.456648 -8.474276 0.000000 0.000000 0.000000 -7.125000 0.000000 0.000000 -8.234809 38.727709 -1.282568 0.000000 0.000000 0.000000 -3.449613 0.535293 23.174931 -16.142577 -25.713603 -3.707575 -21.008017 2.664165 2.114552 0.000000 0.000000 0.000000 7.125000 0.000000 0.000000 4.495812 32.223422 1.409824
49.565130 15.977865 16.932013 -173.026614 -49.676882 175.606651 0.000000 0.000000 0.000000 -15.870547 8.297825 -8.656664 2.055891 8.981581 25.737835 1.431848 -1.353816 -22.229711 0.016013 -0.818021 -2.248112 0.000000 0.000000 0.000000 27.495271 5.991906 -9.251185 -3.343001 -11.230557 33.061476 -1.989544 -3.256677 -27.974675 -0.022400 -0.966970 2.657961 4.232816 -0.821459 -2.170535 1.896246 -1.477332 3.569191 -0.504053 -0.658855 4.861188 1.475602 -0.820309 -2.960923 0.425966 -1.167601 1.790850 -0.134248 -0.568501 1.032534 0.000000 0.000000 0.000000 0.682970 -1.198163 -23.608680 14.312499 -23.179733 2.950051 17.317750 -17.429890 -8.450550 0.000000 0.000000 0.000000 -7.125000 0.000000 0.000000 -8.253180 38.701393 -1.290918 0.000000 0.000000 0.000000 -3.388022 0.494026 22.962302 -16.107977 -25.666912 -3.692599 -21.260012 3.047483 2.364302 0.000000 0.000000 0.000000 7.125000 0.000000 0.000000 4.308966 32.496361 1.322568
49.562717 15.975837 16.932000 -173.101117 -49.621469 175.578344 0.000000 0.000000 0.000000 -15.918392 8.333586 -8.517951 2.047908 8.965235 25.686562 1.433102 -1.288718 -22.257540 0.015839 -0.813677 -2.236195 0.000000 0.000000 0.000000 27.457983 6.008516 -9.158482 -3.349470 -11.240294 33.094690 -1.992887 -3.251723 -27.994020 -0.022080 -0.959546 2.637416 4.210997 -0.799957 -2.168618 1.875294 -1.451313 3.637708 -0.512422 -0.645086 4.932861 1.496934 -0.823815 -2.983323 0.446116 -1.173915 1.749752 -0.131671 -0.571598 1.023423 0.000000 0.000000 0.000000 0.703016 -1.224913 -23.616600 14.369087 -23.259918 2.972351 17.330850 -17.444955 -8.409758 0.000000 0.000000 0.000000 -7.125000 0.000000 0.000000 -8.235587 38.660141 -1.296485 0.000000 0.000000 0.000000 -3.324594 0.440108 22.851758 -16.132544 -25.700026 -3.703248 -21.192128 3.389943 2.906355 0.000000 0.000000 0.000000 7.125000 0.000000 0.000000 4.400084 33.074068 1.289085
